<?xml version="1.0" encoding="UTF-8" standalone="no"?>
<svg width="188px" height="31px" viewBox="0 0 188 31" version="1.1" xmlns="http://www.w3.org/2000/svg" xmlns:xlink="http://www.w3.org/1999/xlink">
    <!-- Generator: Sketch 48.2 (47327) - http://www.bohemiancoding.com/sketch -->
    <title>Varonis_Logo</title>
    <desc>Created with Sketch.</desc>
    <defs></defs>
    <g id="VAR_Home_th_10b" stroke="none" stroke-width="1" fill="none" fill-rule="evenodd" transform="translate(-331.000000, -111.000000)">
        <g id="Masthead" transform="translate(0.000000, 47.000000)">
            <g id="Nav">
                <g id="Main-Nav" transform="translate(331.000000, 64.000000)">
                    <g id="Varonis_Logo">
                        <path d="M20.0763515,0 L29,13.1855679 L25.5511572,18.2698441 L13.1867153,0 L20.0763515,0 Z M0,0 L6.88963618,0 L22.3995217,22.9163474 L18.9500598,28 L0,0 Z" id="Combined-Shape" fill="#C0242D"></path>
                        <path d="M38.4265503,26.4462644 C39.4083046,27.8762669 39.1124593,29.4291261 37.6696635,30.4044964 C36.186668,31.4098012 34.6490259,31.1260458 33.6547092,29.6760869 L25.6964063,18.0845227 L29.1950445,13 L38.4265503,26.4462644 Z M20.2775997,29.6760869 L19,27.8151503 L22.4992664,22.7312513 L25.0494408,26.4462644 C26.0311952,27.8762669 25.7340936,29.4291261 24.2925541,30.4044964 C22.8095586,31.4098012 21.2725446,31.1260458 20.2775997,29.6760869 Z" id="Combined-Shape" fill="#1A8B99"></path>
                        <path d="M129.744814,22.0021801 C129.744814,25.407553 127.667896,27.4386749 124.192584,27.4386749 L122.840551,27.4386749 C119.376516,27.4386749 117.312129,25.407553 117.312129,22.0021801 C117.312129,18.6005501 119.376516,16.566933 122.840551,16.566933 L124.192584,16.566933 C127.667896,16.566933 129.744814,18.6005501 129.744814,22.0021801 Z M124.404348,13.0068555 C129.950313,13.0068555 133.535267,16.5388616 133.535267,22.0021801 C133.535267,27.4679939 129.950313,31 124.404348,31 L122.626281,31 C117.080943,31 113.497868,27.4679939 113.497868,22.0021801 C113.497868,16.5388616 117.080943,13.0068555 122.626281,13.0068555 L124.404348,13.0068555 Z M163.343888,13.0068555 C164.489795,13.0068555 165.228464,13.7423262 165.228464,14.8807775 L165.228464,29.126078 C165.228464,30.2639055 164.489795,31 163.343888,31 C162.167281,31 161.438637,30.2813721 161.438637,29.126078 L161.438637,14.8807775 C161.438637,13.7254834 162.167281,13.0068555 163.343888,13.0068555 Z M67.8827456,15.9980193 C67.8827456,15.9980193 58.219284,30.1335294 58.0895941,30.2713912 C57.6936328,30.7698145 57.1767528,31.0155952 56.6297999,30.9887714 C56.0916183,31.0168428 55.5872688,30.7791716 55.1906809,30.2894816 C55.0415689,30.134777 45.3818664,15.9930288 45.3818664,15.9930288 C44.7271518,15.0398488 44.9245059,14.0361402 45.8956137,13.3761504 C46.8404075,12.7336272 47.8685287,12.9263841 48.5107128,13.867088 L56.6348121,25.7157146 L64.7526461,13.8708309 C65.4061077,12.917027 66.4160597,12.731132 67.3884205,13.3923694 C68.3332143,14.0355164 68.5268093,15.0573154 67.8827456,15.9980193 Z M182.542375,20.2249485 C185.857298,20.2249485 188,22.3371655 188,25.6109147 C188,28.8840401 185.857298,31 182.542375,31 L172.005542,31 C170.906624,31 170.196776,30.2994626 170.196776,29.2177779 C170.196776,28.1529361 170.926047,27.4386749 172.005542,27.4386749 L182.33437,27.4386749 C183.86872,27.4386749 184.190752,26.4430758 184.190752,25.6109147 C184.190752,24.9290916 183.948288,23.7837784 182.33437,23.7837784 L175.654401,23.7837784 C172.336972,23.7837784 170.196776,21.6671947 170.196776,18.3946931 C170.196776,15.1209439 172.336972,13.0068555 175.654401,13.0068555 L185.649293,13.0068555 C186.718764,13.0068555 187.438637,13.7217405 187.438637,14.7865823 C187.438637,15.8526718 186.718764,16.566933 185.649293,16.566933 L175.864913,16.566933 C174.331815,16.566933 174.006024,17.562532 174.006024,18.3946931 C174.006024,19.0783877 174.248488,20.2249485 175.864913,20.2249485 L182.542375,20.2249485 Z M91.5552194,14.8807775 C91.5552194,13.7254834 92.2832369,13.0068555 93.4604701,13.0068555 L104.170849,13.0068555 C107.327888,13.0068555 109.369094,15.1876915 109.369094,18.5618739 C109.369094,18.6454643 109.362829,18.7259357 109.35719,18.8101499 C109.354684,18.845707 109.353431,18.8831355 109.350925,18.9211879 C109.353431,18.9224355 109.354684,18.9542497 109.35719,18.9879354 C109.362829,19.0696544 109.369094,19.1538686 109.369094,19.2380828 C109.369094,21.699009 108.252007,23.5691881 106.383095,24.3645445 L109.062099,28.2621026 C109.244416,28.5022691 109.353431,28.7667641 109.379119,29.0300114 C109.492519,30.0692771 108.907975,30.8583954 107.919324,30.9869 C107.861684,30.9925143 107.796526,31 107.735754,31 C107.223886,31 106.743344,30.7236526 106.418806,30.2408245 L102.708548,24.8292822 L95.3456721,24.8292822 L95.3456721,29.126078 C95.3456721,30.2639055 94.6057507,31 93.4623496,31 C92.285743,31 91.5552194,30.2813721 91.5552194,29.126078 L91.5552194,14.8807775 Z M95.3456721,16.566933 L103.655848,16.566933 C105.559846,16.566933 105.770357,18.2013124 105.775369,18.8968593 C105.770357,19.547492 105.581774,21.0334049 103.966603,21.2068238 L95.3456721,21.2068238 L95.3456721,16.566933 Z M87.8850587,28.0001029 C88.5397733,28.9545305 88.3442987,29.9557439 87.3725644,30.6176051 C86.4265175,31.2595045 85.3996494,31.0673714 84.7549592,30.1266675 L82.760116,27.2159751 L70.5091221,27.2159751 L68.516785,30.121677 C67.8608174,31.0754809 66.8514919,31.2619997 65.8810107,30.6001385 C64.9349638,29.9569915 64.7407422,28.9358163 65.3854325,27.9944886 C65.3854325,27.9944886 75.0476411,13.8596023 75.178584,13.7217405 C75.5764249,13.2233172 76.0914253,12.9787841 76.6383782,13.001865 C77.1765598,12.9762889 77.6821624,13.2139601 78.0774972,13.7030263 C78.2266092,13.8583547 87.8850587,28.0001029 87.8850587,28.0001029 Z M72.6831504,24.0432829 L76.6346191,18.2780409 L80.5860877,24.0432829 L72.6831504,24.0432829 Z M154.847009,31 C153.674788,31 152.974964,30.3032054 152.974964,29.1360589 L152.974964,21.8368708 C152.974964,17.9255888 150.194463,16.5307521 147.589388,16.5307521 L146.223572,16.5307521 C143.61975,16.5307521 140.83737,17.9255888 140.83737,21.8368708 L140.83737,29.1360589 C140.83737,30.3032054 140.13692,31 138.964699,31 C137.793731,31 137.06446,30.2876102 137.06446,29.1360589 L137.06446,21.8368708 C137.06446,16.4746093 140.580496,13.0068555 146.019326,13.0068555 L147.793634,13.0068555 C153.23309,13.0068555 156.747247,16.4746093 156.747247,21.8368708 L156.747247,29.1360589 C156.747247,30.2876102 156.01923,31 154.847009,31 Z" id="Combined-Shape" fill="#FFFFFF"></path>
                    </g>
                </g>
            </g>
        </g>
    </g>
</svg>